<svg viewBox="0 0 148 50" fill="none" xmlns="http://www.w3.org/2000/svg">
<path d="M26.1104 0.0478516C40.5057 0.0480154 52.1719 11.2216 52.1719 25C52.1719 38.7784 40.5057 49.952 26.1104 49.9521C11.7148 49.9521 0.0478516 38.7785 0.0478516 25C0.0478516 11.2215 11.7148 0.0478516 26.1104 0.0478516Z" fill="#3F80B8" stroke="#3F80B8" stroke-width="0.0965251"/>
<path d="M50.8322 15.8784C46.7042 6.53871 37.1732 0 26.0749 0C23.1894 0 20.4099 0.441996 17.8037 1.2603C17.8037 1.2603 30.457 4.66208 33.0089 5.74324C36.4263 7.19112 37.0206 8.30116 37.2188 8.83205C37.4169 9.36293 37.2712 9.95163 37.2188 10.666C37.0651 12.7603 35.9228 13.7435 35.6834 15.8301C35.5952 16.599 35.5794 16.8904 35.5843 17.6641L35.5898 17.6694C36.6882 18.7397 36.9213 18.9669 39.398 18.8224C43.603 18.577 50.8322 15.8784 50.8322 15.8784Z" fill="#D2D2D2"/>
<path d="M28.2044 12.2104C26.1242 11.2368 24.1772 10.9556 21.5181 10.9556C21.5181 10.9556 30.5817 7.77028 34.1973 7.77028C36.7232 7.77028 37.2185 8.83205 37.2185 8.83205C37.4166 9.36294 37.2709 9.95164 37.2185 10.666C37.0648 12.7603 35.9226 13.7435 35.6831 15.8301C35.5949 16.599 35.5791 16.8904 35.5841 17.6641C33.9992 16.1197 34.0185 16.0867 31.919 14.4788C30.7181 13.5591 28.6501 12.4191 28.2044 12.2104Z" fill="#C1C1C1"/>
<path d="M21.5184 10.9556L0.320312 19.305C2.7082 10.7419 9.18369 3.96687 17.8038 1.2603C17.8038 1.2603 30.457 4.66208 33.0089 5.74324C36.4263 7.19112 37.0207 8.30116 37.2188 8.83205C37.2188 8.83205 36.7235 7.77027 34.1976 7.77027C30.582 7.77027 21.5184 10.9556 21.5184 10.9556Z" fill="#F8F8F7"/>
<path d="M2.12314 34.8107C6.14566 43.7451 15.4331 50 26.2478 50C29.0595 50 31.768 49.5772 34.3076 48.7944C34.3076 48.7944 21.9777 45.5402 19.491 44.506C16.1609 43.121 15.5817 42.0591 15.3887 41.5512C15.1956 41.0434 15.3376 40.4802 15.3887 39.7969C15.5384 37.7935 16.6515 36.853 16.8848 34.8569C16.9708 34.1214 16.9862 33.8426 16.9814 33.1025L16.976 33.0974C15.9057 32.0735 15.6785 31.8562 13.2651 31.9945C9.16757 32.2292 2.12314 34.8107 2.12314 34.8107Z" fill="#C03129"/>
<path d="M24.1725 38.3195C26.1996 39.2509 28.0968 39.5199 30.688 39.5199C30.688 39.5199 21.8559 42.567 18.3328 42.567C15.8714 42.567 15.3888 41.5513 15.3888 41.5513C15.1957 41.0434 15.3377 40.4803 15.3888 39.7969C15.5385 37.7935 16.6516 36.853 16.8849 34.8569C16.9709 34.1214 16.9862 33.8426 16.9814 33.1025C18.5258 34.5799 18.507 34.6115 20.5529 36.1496C21.7231 37.0294 23.7382 38.1199 24.1725 38.3195Z" fill="#932A26"/>
<path d="M30.688 39.5199L51.3027 31.579C48.9759 39.7704 42.7075 46.2053 34.3077 48.7944C34.3077 48.7944 21.9777 45.5402 19.4911 44.506C16.161 43.121 15.5818 42.0591 15.3888 41.5513C15.3888 41.5513 15.8714 42.567 18.3328 42.567C21.8559 42.567 30.688 39.5199 30.688 39.5199Z" fill="#CD3E30"/>
<path d="M66.4634 29.5277L70.4033 19H72.8897L76.8423 29.5277H74.2157L71.1301 20.4588H72.1246L69.039 29.5277H66.4634ZM68.6182 27.4823L69.2685 25.2865H73.6292L74.2795 27.4823H68.6182Z" fill="#1A1A1A"/>
<path d="M78.5027 29.5277V19H82.8379C83.9089 19 84.7377 19.2406 85.3242 19.7219C85.9193 20.1931 86.2168 20.8649 86.2168 21.7372C86.2168 22.5894 85.9405 23.2612 85.388 23.7525C84.8355 24.2338 84.0959 24.4744 83.1694 24.4744L83.4244 23.7675C84.4275 23.7675 85.2095 24.0032 85.7705 24.4744C86.34 24.9356 86.6248 25.6174 86.6248 26.5198C86.6248 27.4422 86.3188 28.1741 85.7068 28.7156C85.1032 29.257 84.2277 29.5277 83.0801 29.5277H78.5027ZM80.9891 27.3921H82.9781C83.3437 27.3921 83.6157 27.3018 83.7942 27.1214C83.9812 26.9309 84.0747 26.6551 84.0747 26.2942C84.0747 25.9332 83.9812 25.6675 83.7942 25.4971C83.6157 25.3166 83.3437 25.2264 82.9781 25.2264H80.9891V27.3921ZM80.9891 23.2111H82.5956C82.9526 23.2111 83.2204 23.1259 83.3989 22.9554C83.5774 22.7749 83.6667 22.5142 83.6667 22.1733C83.6667 21.8324 83.5774 21.5768 83.3989 21.4063C83.2204 21.2259 82.9526 21.1356 82.5956 21.1356H80.9891V23.2111Z" fill="#1A1A1A"/>
<path d="M87.7359 29.5277L91.6758 19H94.1622L98.1148 29.5277H95.4882L92.4026 20.4588H93.3971L90.3115 29.5277H87.7359ZM89.8907 27.4823L90.541 25.2865H94.9017L95.552 27.4823H89.8907Z" fill="#1A1A1A"/>
<path d="M105.742 19H108.267V29.5277H105.742V19ZM102.3 29.5277H99.7752V19H102.3V29.5277ZM105.921 25.4219H102.121V22.9554H105.921V25.4219Z" fill="#1A1A1A"/>
<path d="M110.822 29.5277V19H117.363L117.351 21.3612H112.748L113.309 20.6995V29.5277H110.822Z" fill="#1A1A1A"/>
<path d="M116.482 29.5277L120.422 19H122.908L126.861 29.5277H124.234L121.149 20.4588H122.143L119.058 29.5277H116.482ZM118.637 27.4823L119.287 25.2865H123.648L124.298 27.4823H118.637Z" fill="#1A1A1A"/>
<path d="M128.521 29.5277V19H132.601C133.417 19 134.119 19.1554 134.705 19.4662C135.3 19.777 135.759 20.2282 136.082 20.8198C136.405 21.4013 136.567 22.0931 136.567 22.8952C136.567 23.6873 136.405 24.3741 136.082 24.9557C135.759 25.5372 135.3 25.9884 134.705 26.3092C134.119 26.62 133.417 26.7754 132.601 26.7754H129.924L131.046 25.482V29.5277H128.521ZM131.046 25.7979L129.924 24.4293H132.448C132.975 24.4293 133.366 24.2939 133.621 24.0232C133.885 23.7525 134.017 23.3765 134.017 22.8952C134.017 22.404 133.885 22.023 133.621 21.7522C133.366 21.4815 132.975 21.3462 132.448 21.3462H129.924L131.046 19.9776V25.7979Z" fill="#1A1A1A"/>
<path d="M143.766 28.2343V21.3612H141.203L141.165 22.5042C141.148 23.1158 141.114 23.6873 141.063 24.2187C141.02 24.7501 140.956 25.2364 140.871 25.6776C140.795 26.1187 140.689 26.4997 140.553 26.8206C140.425 27.1314 140.268 27.372 140.081 27.5425L137.39 27.1665C137.688 27.1765 137.93 27.0612 138.117 26.8206C138.313 26.5699 138.466 26.224 138.576 25.7828C138.695 25.3417 138.78 24.8203 138.831 24.2187C138.891 23.6171 138.933 22.9604 138.959 22.2485L139.061 19H146.252V28.2343H143.766ZM137.123 31.6483V27.1665H147.463V31.6483H145.156V29.5277H139.443V31.6483H137.123Z" fill="#1A1A1A"/>
</svg>
