<svg viewBox="0 0 91 74" fill="none" xmlns="http://www.w3.org/2000/svg">
<g filter="url(#filter0_d_1513_23)">
<path d="M83.551 36.8021C83.551 57.1273 66.3426 73.6042 45.1149 73.6042C23.8872 73.6042 6.67871 57.1273 6.67871 36.8021C6.67871 16.4769 23.8872 0 45.1149 0C66.3426 0 83.551 16.4769 83.551 36.8021Z" fill="#3F80B8"/>
<path d="M81.5069 23.3743C75.4301 9.62552 61.3997 0 45.0621 0C40.8145 0 36.7228 0.650656 32.8862 1.85527C32.8862 1.85527 51.5129 6.86298 55.2695 8.45453C60.3002 10.5859 61.1752 12.22 61.4668 13.0015C61.7584 13.783 61.544 14.6496 61.4668 15.7013C61.2406 18.7842 59.5591 20.2316 59.2066 23.3032C59.0767 24.4351 59.0535 24.8641 59.0608 26.003L59.0689 26.0109C60.6857 27.5865 61.029 27.9209 64.6748 27.7081C70.865 27.3469 81.5069 23.3743 81.5069 23.3743Z" fill="#D2D2D2"/>
<path d="M48.1978 17.9748C45.1356 16.5414 42.2695 16.1275 38.355 16.1275C38.355 16.1275 51.6974 11.4385 57.0198 11.4385C60.7382 11.4385 61.4668 13.0015 61.4668 13.0015C61.7584 13.783 61.544 14.6496 61.4668 15.7013C61.2406 18.7842 59.5591 20.2316 59.2066 23.3032C59.0767 24.4351 59.0535 24.8641 59.0608 26.003C56.7277 23.7295 56.7566 23.6809 53.666 21.3139C51.8982 19.96 48.854 18.2819 48.1978 17.9748Z" fill="#C1C1C1"/>
<path d="M38.355 16.1275L7.1499 28.4186C10.6651 15.813 20.1968 5.83957 32.8862 1.85527C32.8862 1.85527 51.5129 6.86298 55.2695 8.45453C60.3002 10.5859 61.1752 12.22 61.4668 13.0015C61.4668 13.0015 60.7382 11.4385 57.0198 11.4385C51.6974 11.4385 38.355 16.1275 38.355 16.1275Z" fill="#F8F8F7"/>
<path d="M9.80439 51.2442C15.7259 64.3963 29.3978 73.6041 45.3178 73.6041C49.457 73.6041 53.4441 72.9817 57.1826 71.8294C57.1826 71.8294 39.0319 67.039 35.3713 65.5165C30.4691 63.4776 29.6166 61.9145 29.3324 61.1669C29.0482 60.4193 29.2572 59.5903 29.3324 58.5843C29.5528 55.6351 31.1914 54.2506 31.5348 51.3122C31.6614 50.2294 31.684 49.819 31.6769 48.7296L31.669 48.722C30.0935 47.2148 29.759 46.8949 26.2063 47.0985C20.1744 47.4441 9.80439 51.2442 9.80439 51.2442Z" fill="#C03129"/>
<path d="M42.2627 56.4094C45.2467 57.7805 48.0395 58.1765 51.854 58.1765C51.854 58.1765 38.8525 62.662 33.6661 62.662C30.0427 62.662 29.3324 61.1669 29.3324 61.1669C29.0482 60.4193 29.2572 59.5903 29.3324 58.5843C29.5528 55.6351 31.1914 54.2506 31.5348 51.3122C31.6614 50.2294 31.684 49.819 31.6769 48.7296C33.9504 50.9044 33.9226 50.9509 36.9342 53.2152C38.6569 54.5103 41.6233 56.1156 42.2627 56.4094Z" fill="#932A26"/>
<path d="M51.854 58.1765L82.2012 46.4868C78.7758 58.5454 69.5478 68.018 57.1826 71.8294C57.1826 71.8294 39.0319 67.039 35.3713 65.5165C30.4691 63.4776 29.6166 61.9145 29.3324 61.1669C29.3324 61.1669 30.0427 62.662 33.6661 62.662C38.8525 62.662 51.854 58.1765 51.854 58.1765Z" fill="#CD3E30"/>
<path d="M0 43.1677L4.38192 31.4589H7.14721L11.5433 43.1677H8.62203L5.19024 33.0814H6.29635L2.86456 43.1677H0ZM2.39658 40.8928L3.11981 38.4507H7.96971L8.69294 40.8928H2.39658Z" fill="white"/>
<path d="M13.3899 43.1677V31.4589H18.2115C19.4027 31.4589 20.3244 31.7266 20.9768 32.2618C21.6385 32.7859 21.9694 33.533 21.9694 34.5032C21.9694 35.451 21.6622 36.1982 21.0477 36.7446C20.4332 37.2798 19.6107 37.5475 18.5802 37.5475L18.8638 36.7613C19.9794 36.7613 20.8491 37.0234 21.4731 37.5475C22.1065 38.0604 22.4232 38.8187 22.4232 39.8223C22.4232 40.8482 22.0829 41.6622 21.4022 42.2644C20.731 42.8666 19.7572 43.1677 18.4809 43.1677H13.3899ZM16.1552 40.7925H18.3675C18.774 40.7925 19.0765 40.6921 19.275 40.4914C19.483 40.2795 19.587 39.9728 19.587 39.5714C19.587 39.17 19.483 38.8745 19.275 38.6849C19.0765 38.4842 18.774 38.3838 18.3675 38.3838H16.1552V40.7925ZM16.1552 36.1424H17.942C18.3391 36.1424 18.6369 36.0476 18.8354 35.8581C19.034 35.6573 19.1332 35.3674 19.1332 34.9883C19.1332 34.6091 19.034 34.3248 18.8354 34.1352C18.6369 33.9345 18.3391 33.8341 17.942 33.8341H16.1552V36.1424Z" fill="white"/>
<path d="M23.659 43.1677L28.0409 31.4589H30.8062L35.2023 43.1677H32.281L28.8492 33.0814H29.9553L26.5235 43.1677H23.659ZM26.0555 40.8928L26.7788 38.4507H31.6287L32.3519 40.8928H26.0555Z" fill="white"/>
<path d="M43.6856 31.4589H46.4934V43.1677H43.6856V31.4589ZM39.8567 43.1677H37.0489V31.4589H39.8567V43.1677ZM43.8841 38.6012H39.6582V35.8581H43.8841V38.6012Z" fill="white"/>
<path d="M49.3354 43.1677V31.4589H56.6102L56.596 34.085H51.4767L52.1007 33.349V43.1677H49.3354Z" fill="white"/>
<path d="M55.6299 43.1677L60.0118 31.4589H62.7771L67.1732 43.1677H64.2519L60.8201 33.0814H61.9262L58.4944 43.1677H55.6299ZM58.0264 40.8928L58.7497 38.4507H63.5996L64.3228 40.8928H58.0264Z" fill="white"/>
<path d="M69.0198 43.1677V31.4589H73.5577C74.4653 31.4589 75.2452 31.6318 75.8976 31.9775C76.5593 32.3231 77.0699 32.8249 77.4291 33.4829C77.7884 34.1296 77.968 34.8991 77.968 35.7912C77.968 36.6721 77.7884 37.436 77.4291 38.0827C77.0699 38.7295 76.5593 39.2313 75.8976 39.5881C75.2452 39.9338 74.4653 40.1067 73.5577 40.1067H70.5797L71.8276 38.6682V43.1677H69.0198ZM71.8276 39.0194L70.5797 37.4973H73.3875C73.9737 37.4973 74.4086 37.3467 74.6922 37.0457C74.9853 36.7446 75.1318 36.3264 75.1318 35.7912C75.1318 35.2447 74.9853 34.821 74.6922 34.5199C74.4086 34.2188 73.9737 34.0683 73.3875 34.0683H70.5797L71.8276 32.5462V39.0194Z" fill="white"/>
<path d="M85.9745 41.7292V34.085H83.1241L83.0816 35.3563C83.0627 36.0365 83.0248 36.6721 82.9681 37.2631C82.9208 37.8541 82.8499 38.395 82.7554 38.8856C82.6703 39.3763 82.5521 39.8 82.4009 40.1568C82.2591 40.5025 82.0842 40.7702 81.8762 40.9597L78.884 40.5416C79.2149 40.5527 79.4843 40.4245 79.6923 40.1568C79.9097 39.8781 80.0799 39.4933 80.2028 39.0027C80.3352 38.512 80.4297 37.9322 80.4864 37.2631C80.5526 36.594 80.5999 35.8636 80.6283 35.0719L80.7417 31.4589H88.7398V41.7292H85.9745ZM78.5862 45.5261V40.5416H90.087V45.5261H87.5202V43.1677H81.1671V45.5261H78.5862Z" fill="white"/>
</g>
</svg>
