<svg viewBox="0 0 244 234" fill="none" xmlns="http://www.w3.org/2000/svg">
<path d="M244 117C244 181.617 189.379 234 122 234C54.6213 234 0 181.617 0 117C0 52.3827 54.6213 0 122 0C189.379 0 244 52.3827 244 117Z" fill="#3F80B8"/>
<path d="M237.513 74.3108C218.225 30.6011 173.691 0 121.834 0C108.351 0 95.364 2.06854 83.1865 5.8982C83.1865 5.8982 142.309 21.8186 154.233 26.8784C170.201 33.6544 172.978 38.8494 173.904 41.334C174.83 43.8185 174.149 46.5737 173.904 49.917C173.186 59.7183 167.849 64.3195 166.73 74.0849C166.318 77.6833 166.244 79.0472 166.267 82.668L166.293 82.693C171.425 87.702 172.514 88.7653 184.087 88.0888C203.735 86.9402 237.513 74.3108 237.513 74.3108Z" fill="#D2D2D2"/>
<path d="M131.786 57.1448C122.066 52.5881 112.969 51.2722 100.544 51.2722C100.544 51.2722 142.894 36.3649 159.788 36.3649C171.591 36.3649 173.904 41.334 173.904 41.334C174.83 43.8185 174.149 46.5737 173.904 49.917C173.186 59.7183 167.849 64.3195 166.73 74.0849C166.318 77.6833 166.244 79.0472 166.267 82.668C158.861 75.4402 158.953 75.2856 149.143 67.7606C143.531 63.4564 133.869 58.1213 131.786 57.1448Z" fill="#C1C1C1"/>
<path d="M100.544 51.2722L1.49586 90.3475C12.6534 50.2722 42.9103 18.565 83.1878 5.89826C83.1878 5.89826 142.311 21.8186 154.234 26.8784C170.202 33.6545 172.98 38.8495 173.905 41.334C173.905 41.334 171.591 36.3649 159.788 36.3649C142.894 36.3649 100.544 51.2722 100.544 51.2722Z" fill="#F8F8F7"/>
<path d="M9.92198 162.914C28.7173 204.727 72.1133 234 122.645 234C135.783 234 148.439 232.021 160.305 228.358C160.305 228.358 102.693 213.128 91.0739 208.288C75.5139 201.806 72.8078 196.837 71.9057 194.46C71.0037 192.083 71.6671 189.448 71.9057 186.249C72.6054 176.873 77.8063 172.472 78.8965 163.13C79.2982 159.688 79.3699 158.383 79.3475 154.92L79.3225 154.896C74.3215 150.104 73.2599 149.087 61.9833 149.734C42.8373 150.833 9.92198 162.914 9.92198 162.914Z" fill="#C03129"/>
<path d="M112.948 179.335C122.42 183.694 131.284 184.953 143.392 184.953C143.392 184.953 102.124 199.213 85.6617 199.213C74.1608 199.213 71.9057 194.46 71.9057 194.46C71.0037 192.083 71.6671 189.448 71.9057 186.249C72.6054 176.873 77.8063 172.472 78.8965 163.13C79.2982 159.688 79.3699 158.383 79.3475 154.92C86.5638 161.834 86.4758 161.982 96.0351 169.18C101.503 173.298 110.919 178.401 112.948 179.335Z" fill="#932A26"/>
<path d="M143.392 184.953L239.715 147.789C228.843 186.126 199.553 216.241 160.305 228.358C160.305 228.358 102.693 213.128 91.0739 208.288C75.5139 201.806 72.8078 196.837 71.9057 194.46C71.9057 194.46 74.1608 199.213 85.6617 199.213C102.124 199.213 143.392 184.953 143.392 184.953Z" fill="#CD3E30"/>
</svg>
