<svg viewBox="0 0 258 247" fill="none" xmlns="http://www.w3.org/2000/svg">
<path d="M257.897 123.466C257.897 191.655 200.165 246.933 128.948 246.933C57.7322 246.933 0 191.655 0 123.466C0 55.2778 57.7322 0 128.948 0C200.165 0 257.897 55.2778 257.897 123.466Z" fill="#3F80B8"/>
<path d="M251.04 78.4178C230.654 32.2924 183.583 0 128.773 0C114.523 0 100.795 2.18287 87.9243 6.22419C87.9243 6.22419 150.414 23.0244 163.017 28.3639C179.895 35.5144 182.83 40.9965 183.808 43.6184C184.787 46.2403 184.067 49.1477 183.808 52.6758C183.05 63.0188 177.408 67.8743 176.226 78.1795C175.79 81.9767 175.712 83.416 175.737 87.2368L175.764 87.2633C181.188 92.5491 182.34 93.6711 194.571 92.9573C215.338 91.7452 251.04 78.4178 251.04 78.4178Z" fill="#D2D2D2"/>
<path d="M139.292 60.3031C129.019 55.4945 119.403 54.1059 106.271 54.1059C106.271 54.1059 151.033 38.3747 168.889 38.3747C181.363 38.3747 183.808 43.6184 183.808 43.6184C184.787 46.2403 184.067 49.1477 183.808 52.6758C183.05 63.0188 177.408 67.8743 176.226 78.1795C175.79 81.9767 175.712 83.416 175.737 87.2368C167.909 79.6096 168.006 79.4465 157.637 71.5056C151.706 66.9635 141.493 61.3335 139.292 60.3031Z" fill="#C1C1C1"/>
<path d="M106.271 54.1059L1.58105 95.3409C13.374 53.0506 45.3542 19.5911 87.9257 6.22424C87.9257 6.22424 150.416 23.0245 163.019 28.3639C179.896 35.5145 182.831 40.9966 183.81 43.6185C183.81 43.6185 181.363 38.3747 168.889 38.3747C151.033 38.3747 106.271 54.1059 106.271 54.1059Z" fill="#F8F8F7"/>
<path d="M10.4871 171.918C30.3529 216.042 76.2204 246.933 129.63 246.933C143.516 246.933 156.893 244.844 169.435 240.979C169.435 240.979 108.542 224.907 96.261 219.8C79.8147 212.959 76.9545 207.715 76.0011 205.207C75.0477 202.699 75.7488 199.918 76.0011 196.543C76.7406 186.649 82.2377 182.004 83.39 172.146C83.8146 168.514 83.8903 167.137 83.8667 163.482L83.8402 163.456C78.5544 158.4 77.4324 157.327 65.5136 158.009C45.2771 159.169 10.4871 171.918 10.4871 171.918Z" fill="#C03129"/>
<path d="M119.381 189.247C129.392 193.847 138.762 195.175 151.559 195.175C151.559 195.175 107.94 210.223 90.5405 210.223C78.3845 210.223 76.0011 205.207 76.0011 205.207C75.0477 202.699 75.7488 199.918 76.0011 196.543C76.7406 186.649 82.2377 182.004 83.39 172.146C83.8146 168.514 83.8903 167.137 83.8667 163.482C91.4939 170.778 91.4009 170.934 101.505 178.53C107.284 182.875 117.236 188.261 119.381 189.247Z" fill="#932A26"/>
<path d="M151.559 195.175L253.368 155.957C241.877 196.412 210.919 228.192 169.435 240.979C169.435 240.979 108.542 224.907 96.261 219.8C79.8147 212.959 76.9545 207.715 76.0011 205.207C76.0011 205.207 78.3845 210.223 90.5405 210.223C107.94 210.223 151.559 195.175 151.559 195.175Z" fill="#CD3E30"/>
</svg>
